<svg width="100%" viewBox="0 0 1200 410" xmlns="http://www.w3.org/2000/svg" role="img" aria-label="Tech stack">
  <defs>
    <linearGradient id="tbg" x1="0" y1="0" x2="1" y2="1"><stop offset="0" stop-color="#0B1120"/><stop offset="1" stop-color="#111A2E"/></linearGradient>
    <linearGradient id="tacc" x1="0" y1="0" x2="1" y2="0"><stop offset="0" stop-color="#22D3EE"/><stop offset="1" stop-color="#6366F1"/></linearGradient>
  </defs>
  <rect width="1200" height="410" rx="20" fill="url(#tbg)"/>
  <text x="40" y="52" font-family="'Segoe UI',Roboto,Arial,sans-serif" font-size="26" font-weight="700" fill="#F1F5F9">Tech Stack</text>
  <line x1="42" y1="66" x2="200" y2="66" stroke="url(#tacc)" stroke-width="3" stroke-linecap="round" stroke-dasharray="158" stroke-dashoffset="158"><animate attributeName="stroke-dashoffset" values="158;0" dur="1.1s" fill="freeze"/></line>

  <g font-family="'Segoe UI',Roboto,Arial,sans-serif" font-size="14" font-weight="500">
    <!-- Row: Languages -->
    <text x="40" y="120" font-size="15" font-weight="600" fill="#7DD3FC">Languages</text>
    <g transform="translate(240,103)" fill="#CBD5E1">
      <g opacity="0"><animate attributeName="opacity" values="0;1" begin="0.2s" dur="0.4s" fill="freeze"/><rect x="0" width="86" height="34" rx="17" fill="#131F33" stroke="#243049"/><circle cx="18" cy="17" r="3.5" fill="#22D3EE"/><text x="32" y="22">Python</text></g>
      <g opacity="0"><animate attributeName="opacity" values="0;1" begin="0.28s" dur="0.4s" fill="freeze"/><rect x="98" width="68" height="34" rx="17" fill="#131F33" stroke="#243049"/><circle cx="116" cy="17" r="3.5" fill="#3B82F6"/><text x="130" y="22">C++</text></g>
      <g opacity="0"><animate attributeName="opacity" values="0;1" begin="0.36s" dur="0.4s" fill="freeze"/><rect x="178" width="116" height="34" rx="17" fill="#131F33" stroke="#243049"/><circle cx="196" cy="17" r="3.5" fill="#38BDF8"/><text x="210" y="22">JavaScript</text></g>
      <g opacity="0"><animate attributeName="opacity" values="0;1" begin="0.44s" dur="0.4s" fill="freeze"/><rect x="306" width="64" height="34" rx="17" fill="#131F33" stroke="#243049"/><circle cx="324" cy="17" r="3.5" fill="#6366F1"/><text x="338" y="22">SQL</text></g>
    </g>

    <!-- Row: AI / ML -->
    <text x="40" y="178" font-size="15" font-weight="600" fill="#7DD3FC">AI / ML</text>
    <g transform="translate(240,161)" fill="#CBD5E1">
      <g opacity="0"><animate attributeName="opacity" values="0;1" begin="0.5s" dur="0.4s" fill="freeze"/><rect x="0" width="92" height="34" rx="17" fill="#131F33" stroke="#243049"/><circle cx="18" cy="17" r="3.5" fill="#22D3EE"/><text x="32" y="22">PyTorch</text></g>
      <g opacity="0"><animate attributeName="opacity" values="0;1" begin="0.58s" dur="0.4s" fill="freeze"/><rect x="104" width="112" height="34" rx="17" fill="#131F33" stroke="#243049"/><circle cx="122" cy="17" r="3.5" fill="#3B82F6"/><text x="136" y="22">TensorFlow</text></g>
      <g opacity="0"><animate attributeName="opacity" values="0;1" begin="0.66s" dur="0.4s" fill="freeze"/><rect x="228" width="120" height="34" rx="17" fill="#131F33" stroke="#243049"/><circle cx="246" cy="17" r="3.5" fill="#38BDF8"/><text x="260" y="22">HuggingFace</text></g>
      <g opacity="0"><animate attributeName="opacity" values="0;1" begin="0.74s" dur="0.4s" fill="freeze"/><rect x="360" width="84" height="34" rx="17" fill="#131F33" stroke="#243049"/><circle cx="378" cy="17" r="3.5" fill="#6366F1"/><text x="392" y="22">Ollama</text></g>
      <g opacity="0"><animate attributeName="opacity" values="0;1" begin="0.82s" dur="0.4s" fill="freeze"/><rect x="456" width="108" height="34" rx="17" fill="#131F33" stroke="#243049"/><circle cx="474" cy="17" r="3.5" fill="#22D3EE"/><text x="488" y="22">LangChain</text></g>
    </g>

    <!-- Row: Backend & Frontend -->
    <text x="40" y="236" font-size="15" font-weight="600" fill="#7DD3FC">Backend &amp; Frontend</text>
    <g transform="translate(240,219)" fill="#CBD5E1">
      <g opacity="0"><animate attributeName="opacity" values="0;1" begin="0.88s" dur="0.4s" fill="freeze"/><rect x="0" width="92" height="34" rx="17" fill="#131F33" stroke="#243049"/><circle cx="18" cy="17" r="3.5" fill="#3B82F6"/><text x="32" y="22">FastAPI</text></g>
      <g opacity="0"><animate attributeName="opacity" values="0;1" begin="0.96s" dur="0.4s" fill="freeze"/><rect x="104" width="72" height="34" rx="17" fill="#131F33" stroke="#243049"/><circle cx="122" cy="17" r="3.5" fill="#38BDF8"/><text x="136" y="22">Flask</text></g>
      <g opacity="0"><animate attributeName="opacity" values="0;1" begin="1.04s" dur="0.4s" fill="freeze"/><rect x="188" width="92" height="34" rx="17" fill="#131F33" stroke="#243049"/><circle cx="206" cy="17" r="3.5" fill="#6366F1"/><text x="220" y="22">Node.js</text></g>
      <g opacity="0"><animate attributeName="opacity" values="0;1" begin="1.12s" dur="0.4s" fill="freeze"/><rect x="292" width="78" height="34" rx="17" fill="#131F33" stroke="#243049"/><circle cx="310" cy="17" r="3.5" fill="#22D3EE"/><text x="324" y="22">React</text></g>
      <g opacity="0"><animate attributeName="opacity" values="0;1" begin="1.2s" dur="0.4s" fill="freeze"/><rect x="382" width="96" height="34" rx="17" fill="#131F33" stroke="#243049"/><circle cx="400" cy="17" r="3.5" fill="#3B82F6"/><text x="414" y="22">Tailwind</text></g>
    </g>

    <!-- Row: Databases -->
    <text x="40" y="294" font-size="15" font-weight="600" fill="#7DD3FC">Databases</text>
    <g transform="translate(240,277)" fill="#CBD5E1">
      <g opacity="0"><animate attributeName="opacity" values="0;1" begin="1.26s" dur="0.4s" fill="freeze"/><rect x="0" width="104" height="34" rx="17" fill="#131F33" stroke="#243049"/><circle cx="18" cy="17" r="3.5" fill="#38BDF8"/><text x="32" y="22">MongoDB</text></g>
      <g opacity="0"><animate attributeName="opacity" values="0;1" begin="1.34s" dur="0.4s" fill="freeze"/><rect x="116" width="82" height="34" rx="17" fill="#131F33" stroke="#243049"/><circle cx="134" cy="17" r="3.5" fill="#6366F1"/><text x="148" y="22">SQLite</text></g>
      <g opacity="0"><animate attributeName="opacity" values="0;1" begin="1.42s" dur="0.4s" fill="freeze"/><rect x="210" width="108" height="34" rx="17" fill="#131F33" stroke="#243049"/><circle cx="228" cy="17" r="3.5" fill="#22D3EE"/><text x="242" y="22">ChromaDB</text></g>
    </g>

    <!-- Row: Cloud & DevOps -->
    <text x="40" y="352" font-size="15" font-weight="600" fill="#7DD3FC">Cloud &amp; DevOps</text>
    <g transform="translate(240,335)" fill="#CBD5E1">
      <g opacity="0"><animate attributeName="opacity" values="0;1" begin="1.48s" dur="0.4s" fill="freeze"/><rect x="0" width="68" height="34" rx="17" fill="#131F33" stroke="#243049"/><circle cx="18" cy="17" r="3.5" fill="#3B82F6"/><text x="32" y="22">AWS</text></g>
      <g opacity="0"><animate attributeName="opacity" values="0;1" begin="1.56s" dur="0.4s" fill="freeze"/><rect x="80" width="74" height="34" rx="17" fill="#131F33" stroke="#243049"/><circle cx="98" cy="17" r="3.5" fill="#38BDF8"/><text x="112" y="22">Azure</text></g>
      <g opacity="0"><animate attributeName="opacity" values="0;1" begin="1.64s" dur="0.4s" fill="freeze"/><rect x="166" width="84" height="34" rx="17" fill="#131F33" stroke="#243049"/><circle cx="184" cy="17" r="3.5" fill="#6366F1"/><text x="198" y="22">Docker</text></g>
      <g opacity="0"><animate attributeName="opacity" values="0;1" begin="1.72s" dur="0.4s" fill="freeze"/><rect x="262" width="60" height="34" rx="17" fill="#131F33" stroke="#243049"/><circle cx="280" cy="17" r="3.5" fill="#22D3EE"/><text x="294" y="22">Git</text></g>
      <g opacity="0"><animate attributeName="opacity" values="0;1" begin="1.8s" dur="0.4s" fill="freeze"/><rect x="334" width="72" height="34" rx="17" fill="#131F33" stroke="#243049"/><circle cx="352" cy="17" r="3.5" fill="#3B82F6"/><text x="366" y="22">Linux</text></g>
      <g opacity="0"><animate attributeName="opacity" values="0;1" begin="1.88s" dur="0.4s" fill="freeze"/><rect x="418" width="104" height="34" rx="17" fill="#131F33" stroke="#243049"/><circle cx="436" cy="17" r="3.5" fill="#38BDF8"/><text x="450" y="22">Specmatic</text></g>
    </g>
  </g>
</svg>
